<svg xmlns="http://www.w3.org/2000/svg" width="32" height="32" viewBox="0 0 32 32" fill="none">
  <!-- Background Shield -->
  <path d="M16 2L4 7V15C4 22.1797 9.2344 28.8594 16 30C22.7656 28.8594 28 22.1797 28 15V7L16 2Z" fill="#111827"/>
  
  <!-- Shield Outline -->
  <path d="M16 3L5 7.5V15C5 21.5 9.75 27.5 16 28.5C22.25 27.5 27 21.5 27 15V7.5L16 3Z" fill="#1E3A8A"/>
  
  <!-- Inner Shield Gradient -->
  <path d="M16 4L6 8V15C6 20.8 10.2 26.2 16 27C21.8 26.2 26 20.8 26 15V8L16 4Z" fill="url(#paint0_linear)"/>
  
  <!-- Code Symbol -->
  <path d="M12.5 12L9.5 16L12.5 20" stroke="white" stroke-width="2" stroke-linecap="round" stroke-linejoin="round"/>
  <path d="M19.5 12L22.5 16L19.5 20" stroke="white" stroke-width="2" stroke-linecap="round" stroke-linejoin="round"/>
  <path d="M17 10.5L15 21.5" stroke="white" stroke-width="2" stroke-linecap="round" stroke-linejoin="round"/>
  
  <!-- Gradient Definition -->
  <defs>
    <linearGradient id="paint0_linear" x1="6" y1="4" x2="26" y2="27" gradientUnits="userSpaceOnUse">
      <stop offset="0" stop-color="#3B82F6"/>
      <stop offset="1" stop-color="#8B5CF6"/>
    </linearGradient>
  </defs>
</svg> 